<svg xmlns="http://www.w3.org/2000/svg" width="24" height="24" viewBox="0 0 24 24" fill="none">
  <g clip-path="url(#clip0_920_500)">
    <path d="M12 2.98979C14.3869 2.99782 16.6736 3.95059 18.36 5.63979L15.986 8.01379H21.816C22.12 8.01379 22.4114 7.89305 22.6264 7.67813C22.8413 7.46322 22.962 7.17173 22.962 6.86779V1.03779L20.471 3.52879C18.7966 1.84653 16.6603 0.699549 14.333 0.233361C12.0058 -0.232826 9.59246 0.00279492 7.39931 0.91033C5.20617 1.81786 3.33202 3.35641 2.01466 5.33076C0.6973 7.30512 -0.00390342 9.62629 1.63444e-05 11.9998H2.99002C2.99266 9.611 3.94278 7.32081 5.63191 5.63168C7.32104 3.94255 9.61123 2.99244 12 2.98979Z" fill="#1E7BF3"/>
    <path d="M21.01 12C21.0133 13.7822 20.487 15.5252 19.498 17.0079C18.5089 18.4905 17.1017 19.6458 15.4549 20.3272C13.8081 21.0087 11.9959 21.1855 10.2485 20.8352C8.501 20.485 6.89698 19.6235 5.63999 18.36L8.014 15.986H1.99299C1.73979 15.9863 1.49704 16.087 1.318 16.266C1.13896 16.445 1.03826 16.6878 1.03799 16.941V22.962L3.52899 20.471C5.20337 22.1533 7.33971 23.3002 9.66698 23.7664C11.9943 24.2326 14.4076 23.997 16.6007 23.0895C18.7938 22.1819 20.668 20.6434 21.9854 18.669C23.3027 16.6947 24.0039 14.3735 24 12H21.01Z" fill="#1E7BF3"/>
  </g>
  <defs>
    <clipPath id="clip0_920_500">
      <rect width="24" height="24" fill="white"/>
    </clipPath>
  </defs>
</svg>